<?xml version='1.0' encoding='utf-8'?>
<svg xmlns="http://www.w3.org/2000/svg" enable-background="new 0 0 640 480" version="1.1" viewBox="0 0 640 480">
	<circle cx="320" cy="240" r="215.54" fill="#fff" stroke="#000" stroke-miterlimit="10"/>
<path d="m410.08 290.55c0 33.637-11.149 59.479-33.444 77.52-19.848 15.982-45.688 23.972-77.52 23.972-17.785 0-33.83-1.74-48.135-5.22-0.773-5.283-2-13.982-3.673-26.098-1.033-6.699-2.45-15.528-4.253-26.484 14.176 7.862 28.158 11.792 41.95 11.792 31.831 0 47.749-10.052 47.749-30.157 0-18.041-12.565-27.063-37.696-27.063-15.465 0-30.157 3.223-44.076 9.665l-21.072-20.878c4.896-20.491 11.919-53.741 21.072-99.75 3.866-23.584 8.312-52.902 13.338-87.958h121.98c2.706-0.257 6.637-0.9 11.792-1.933l-17.398 95.305h-82.352l-8.312 31.317c14.562-3.737 29.254-5.606 44.076-5.606 21.005 0 38.856 7.669 53.549 23.005 14.95 15.72 22.42 35.25 22.42 58.57z"/>
</svg>